# xmcd CD database file
#
# Track frame offsets:
#	150
#	18080
#	39282
#	55540
#	71012
#	83295
#	107942
#	127360
#	138820
#	154262
#	180517
#	199632
#	224682
#	253445
#	262472
#
# Disc length: 3801 seconds
#
# Revision: 0
# Processed by: cddbd v1.5.2PL0 Copyright (c) Steve Scherf et al.
# Submitted via: CDex 1.51
#
DISCID=db0ed70f
DTITLE=Incarnation - Incarnation
DYEAR=1994
DGENRE=Blues
TTITLE0=Walking Blues
TTITLE1=Stones In My Passway
TTITLE2=Terraplane Blues
TTITLE3=Travelling Riverside Blues
TTITLE4=If I Had Possession Over Judgement Day
TTITLE5=Sweet Home Chicago
TTITLE6=Mean Black Spider
TTITLE7=32-20 Blues
TTITLE8=Phonograph Blues
TTITLE9=From Four Til Late
TTITLE10=Little Boy Blue
TTITLE11=When You Got A Good Friend
TTITLE12=Me And The Devil Blues
TTITLE13=Crossroads Blues
TTITLE14=Love In Vain
EXTD=YEAR: 1994
EXTT0=
EXTT1=
EXTT2=
EXTT3=
EXTT4=
EXTT5=
EXTT6=
EXTT7=
EXTT8=
EXTT9=
EXTT10=
EXTT11=
EXTT12=
EXTT13=
EXTT14=
PLAYORDER=
